<svg width="44" height="37" viewBox="0 0 44 37" fill="none" xmlns="http://www.w3.org/2000/svg">
<path d="M14.58 3.8C17.412 3.8 19.86 4.316 21.924 5.348C23.988 6.356 25.572 7.808 26.676 9.704C27.804 11.576 28.368 13.808 28.368 16.4C28.368 18.992 27.804 21.236 26.676 23.132C25.572 25.004 23.988 26.456 21.924 27.488C19.86 28.496 17.412 29 14.58 29H6.012L5.976 27.488C6.672 27.488 7.392 27.488 8.136 27.488C8.904 27.488 9.648 27.488 10.368 27.488C11.088 27.488 11.724 27.488 12.276 27.488C12.852 27.488 13.308 27.488 13.644 27.488C13.98 27.488 14.148 27.488 14.148 27.488C15.876 27.488 17.364 27.044 18.612 26.156C19.86 25.244 20.82 23.96 21.492 22.304C22.164 20.648 22.5 18.68 22.5 16.4C22.5 14.12 22.164 12.152 21.492 10.496C20.82 8.84 19.86 7.568 18.612 6.68C17.364 5.768 15.876 5.312 14.148 5.312C14.148 5.312 13.968 5.312 13.608 5.312C13.272 5.312 12.804 5.312 12.204 5.312C11.604 5.312 10.932 5.312 10.188 5.312C9.444 5.312 8.676 5.312 7.884 5.312C7.092 5.312 6.336 5.312 5.616 5.312V3.8H14.58ZM9.684 3.8V29H4.284V3.8H9.684ZM4.392 26.372V29H1.512V28.64C1.512 28.64 1.584 28.64 1.728 28.64C1.896 28.64 1.98 28.64 1.98 28.64C2.604 28.64 3.132 28.424 3.564 27.992C4.02 27.536 4.26 26.996 4.284 26.372H4.392ZM4.392 6.428H4.284C4.284 5.804 4.056 5.276 3.6 4.844C3.144 4.388 2.604 4.16 1.98 4.16C1.98 4.16 1.908 4.16 1.764 4.16C1.62 4.16 1.548 4.16 1.548 4.16L1.512 3.8H4.392V6.428ZM39.042 3.8V27.92C39.042 29.24 38.778 30.428 38.25 31.484C37.722 32.564 37.002 33.476 36.09 34.22C35.202 34.964 34.182 35.504 33.03 35.84C31.878 36.2 30.678 36.32 29.43 36.2V35.876C30.438 35.444 31.254 34.796 31.878 33.932C32.502 33.092 32.946 32.132 33.21 31.052C33.498 29.996 33.642 28.916 33.642 27.812V3.8H39.042ZM33.75 6.428H33.642C33.618 5.804 33.378 5.276 32.922 4.844C32.49 4.388 31.962 4.16 31.338 4.16C31.338 4.16 31.254 4.16 31.086 4.16C30.942 4.16 30.87 4.16 30.87 4.16V3.8H33.75V6.428ZM38.934 6.428V3.8H41.814V4.16C41.814 4.16 41.73 4.16 41.562 4.16C41.418 4.16 41.346 4.16 41.346 4.16C40.722 4.16 40.182 4.388 39.726 4.844C39.294 5.276 39.066 5.804 39.042 6.428H38.934Z" fill="#FFD700"/>
</svg>
