<svg width="297" height="37" viewBox="0 0 297 37" fill="none" xmlns="http://www.w3.org/2000/svg">
<path d="M14.58 3.8C17.412 3.8 19.86 4.316 21.924 5.348C23.988 6.356 25.572 7.808 26.676 9.704C27.804 11.576 28.368 13.808 28.368 16.4C28.368 18.992 27.804 21.236 26.676 23.132C25.572 25.004 23.988 26.456 21.924 27.488C19.86 28.496 17.412 29 14.58 29H6.012L5.976 27.488C6.672 27.488 7.392 27.488 8.136 27.488C8.904 27.488 9.648 27.488 10.368 27.488C11.088 27.488 11.724 27.488 12.276 27.488C12.852 27.488 13.308 27.488 13.644 27.488C13.98 27.488 14.148 27.488 14.148 27.488C15.876 27.488 17.364 27.044 18.612 26.156C19.86 25.244 20.82 23.96 21.492 22.304C22.164 20.648 22.5 18.68 22.5 16.4C22.5 14.12 22.164 12.152 21.492 10.496C20.82 8.84 19.86 7.568 18.612 6.68C17.364 5.768 15.876 5.312 14.148 5.312C14.148 5.312 13.968 5.312 13.608 5.312C13.272 5.312 12.804 5.312 12.204 5.312C11.604 5.312 10.932 5.312 10.188 5.312C9.444 5.312 8.676 5.312 7.884 5.312C7.092 5.312 6.336 5.312 5.616 5.312V3.8H14.58ZM9.684 3.8V29H4.284V3.8H9.684ZM4.392 26.372V29H1.512V28.64C1.512 28.64 1.584 28.64 1.728 28.64C1.896 28.64 1.98 28.64 1.98 28.64C2.604 28.64 3.132 28.424 3.564 27.992C4.02 27.536 4.26 26.996 4.284 26.372H4.392ZM4.392 6.428H4.284C4.284 5.804 4.056 5.276 3.6 4.844C3.144 4.388 2.604 4.16 1.98 4.16C1.98 4.16 1.908 4.16 1.764 4.16C1.62 4.16 1.548 4.16 1.548 4.16L1.512 3.8H4.392V6.428ZM41.3963 3.08L53.1683 28.784H46.6883L39.2003 10.028L41.3963 3.08ZM33.6563 26.372C33.4643 26.852 33.4283 27.26 33.5483 27.596C33.6683 27.932 33.8723 28.196 34.1603 28.388C34.4483 28.556 34.7363 28.64 35.0243 28.64H35.3483V29H27.6443V28.64C27.6443 28.64 27.7043 28.64 27.8243 28.64C27.9203 28.64 27.9683 28.64 27.9683 28.64C28.5203 28.64 29.0843 28.472 29.6603 28.136C30.2603 27.776 30.7523 27.188 31.1363 26.372H33.6563ZM41.3963 3.08L41.5403 7.472L32.6123 28.892H29.9843L39.3083 7.796C39.3803 7.652 39.5003 7.388 39.6683 7.004C39.8603 6.596 40.0523 6.14 40.2443 5.636C40.4603 5.132 40.6523 4.652 40.8203 4.196C40.9883 3.716 41.0723 3.344 41.0723 3.08H41.3963ZM45.1763 20.432V21.944H34.5923V20.432H45.1763ZM45.7163 26.372H52.0163C52.4243 27.188 52.9163 27.776 53.4923 28.136C54.0683 28.472 54.6323 28.64 55.1843 28.64C55.1843 28.64 55.2323 28.64 55.3283 28.64C55.4243 28.64 55.4723 28.64 55.4723 28.64V29H44.0243V28.64H44.3483C44.8283 28.64 45.2483 28.448 45.6083 28.064C45.9683 27.656 46.0043 27.092 45.7163 26.372ZM58.345 3.26L81.313 25.148L81.745 29.504L58.777 7.652L58.345 3.26ZM58.525 26.444V29H55.537V28.64C55.537 28.64 55.645 28.64 55.861 28.64C56.077 28.64 56.197 28.64 56.221 28.64C56.821 28.64 57.337 28.424 57.769 27.992C58.201 27.56 58.417 27.044 58.417 26.444H58.525ZM63.565 26.444C63.565 27.044 63.781 27.56 64.213 27.992C64.645 28.424 65.161 28.64 65.761 28.64C65.785 28.64 65.905 28.64 66.121 28.64C66.337 28.64 66.445 28.64 66.445 28.64V29H63.457V26.444H63.565ZM58.345 3.26L63.529 8.768L63.565 29H58.417V7.76C58.417 6.416 58.345 5.336 58.201 4.52C58.057 3.68 57.985 3.26 57.985 3.26H58.345ZM81.637 3.8V24.896C81.637 25.784 81.673 26.588 81.745 27.308C81.817 28.004 81.889 28.544 81.961 28.928C82.033 29.312 82.069 29.504 82.069 29.504H81.745L76.525 23.672V3.8H81.637ZM84.517 3.8V4.16C84.517 4.16 84.409 4.16 84.193 4.16C83.977 4.16 83.869 4.16 83.869 4.16C83.269 4.16 82.753 4.376 82.321 4.808C81.889 5.216 81.661 5.732 81.637 6.356H81.529V3.8H84.517ZM73.609 3.8H76.597V6.356H76.525C76.501 5.732 76.273 5.216 75.841 4.808C75.433 4.376 74.917 4.16 74.293 4.16C74.293 4.16 74.185 4.16 73.969 4.16C73.753 4.16 73.633 4.16 73.609 4.16V3.8ZM94.727 3.8V29H89.327V3.8H94.727ZM89.435 26.372V29H86.555V28.64C86.555 28.64 86.627 28.64 86.771 28.64C86.939 28.64 87.023 28.64 87.023 28.64C87.647 28.64 88.175 28.424 88.607 27.992C89.063 27.536 89.303 26.996 89.327 26.372H89.435ZM89.435 6.428H89.327C89.303 5.804 89.063 5.276 88.607 4.844C88.175 4.388 87.647 4.16 87.023 4.16C87.023 4.16 86.939 4.16 86.771 4.16C86.627 4.16 86.555 4.16 86.555 4.16V3.8H89.435V6.428ZM94.619 26.372H94.727C94.751 26.996 94.979 27.536 95.411 27.992C95.867 28.424 96.407 28.64 97.031 28.64C97.031 28.64 97.103 28.64 97.247 28.64C97.391 28.64 97.475 28.64 97.499 28.64V29H94.619V26.372ZM94.619 6.428V3.8H97.499V4.16C97.475 4.16 97.391 4.16 97.247 4.16C97.103 4.16 97.031 4.16 97.031 4.16C96.407 4.16 95.867 4.388 95.411 4.844C94.979 5.276 94.751 5.804 94.727 6.428H94.619ZM108.937 3.296C109.417 3.296 110.005 3.32 110.701 3.368C111.421 3.416 112.153 3.488 112.897 3.584C113.665 3.656 114.325 3.74 114.877 3.836C115.453 3.908 115.849 3.992 116.065 4.088L115.633 8.948H115.273C115.273 7.7 114.805 6.704 113.869 5.96C112.957 5.192 111.733 4.808 110.197 4.808C108.805 4.808 107.677 5.144 106.813 5.816C105.973 6.488 105.529 7.304 105.481 8.264C105.457 8.984 105.685 9.608 106.165 10.136C106.645 10.664 107.257 11.156 108.001 11.612L114.877 16.076C115.981 16.7 116.809 17.516 117.361 18.524C117.937 19.532 118.189 20.708 118.117 22.052C117.997 24.404 117.097 26.24 115.417 27.56C113.737 28.856 111.457 29.504 108.577 29.504C107.521 29.504 106.489 29.408 105.481 29.216C104.497 29.048 103.621 28.808 102.853 28.496C102.085 28.16 101.473 27.764 101.017 27.308C100.825 26.78 100.741 26.144 100.765 25.4C100.789 24.656 100.897 23.9 101.089 23.132C101.305 22.364 101.569 21.728 101.881 21.224H102.205C102.109 22.448 102.325 23.588 102.853 24.644C103.405 25.676 104.197 26.504 105.229 27.128C106.285 27.728 107.533 28.016 108.973 27.992C110.557 27.968 111.781 27.572 112.645 26.804C113.509 26.012 113.941 25.064 113.941 23.96C113.941 23.216 113.713 22.544 113.257 21.944C112.825 21.344 112.105 20.768 111.097 20.216L104.797 16.04C103.525 15.32 102.601 14.396 102.025 13.268C101.449 12.14 101.221 10.916 101.341 9.596C101.461 8.348 101.833 7.256 102.457 6.32C103.081 5.36 103.933 4.616 105.013 4.088C106.117 3.56 107.425 3.296 108.937 3.296ZM116.101 3.656L116.029 4.412H111.781V3.656H116.101ZM146.314 3.8V29H140.914V3.8H146.314ZM129.25 3.8V29H123.85V3.8H129.25ZM141.238 15.68V17.228H128.89V15.68H141.238ZM123.958 26.372V29H121.078V28.64C121.078 28.64 121.15 28.64 121.294 28.64C121.462 28.64 121.546 28.64 121.546 28.64C122.17 28.64 122.698 28.424 123.13 27.992C123.586 27.536 123.826 26.996 123.85 26.372H123.958ZM123.958 6.428H123.85C123.826 5.804 123.586 5.276 123.13 4.844C122.698 4.388 122.17 4.16 121.546 4.16C121.546 4.16 121.462 4.16 121.294 4.16C121.15 4.16 121.078 4.16 121.078 4.16V3.8H123.958V6.428ZM129.142 26.372H129.25C129.274 26.996 129.502 27.536 129.934 27.992C130.39 28.424 130.93 28.64 131.554 28.64C131.554 28.64 131.626 28.64 131.77 28.64C131.914 28.64 131.998 28.64 132.022 28.64V29H129.142V26.372ZM129.142 6.428V3.8H132.022V4.16C131.998 4.16 131.914 4.16 131.77 4.16C131.626 4.16 131.554 4.16 131.554 4.16C130.93 4.16 130.39 4.388 129.934 4.844C129.502 5.276 129.274 5.804 129.25 6.428H129.142ZM141.022 26.372V29H138.142V28.64C138.166 28.64 138.25 28.64 138.394 28.64C138.538 28.64 138.61 28.64 138.61 28.64C139.234 28.64 139.774 28.424 140.23 27.992C140.686 27.536 140.914 26.996 140.914 26.372H141.022ZM141.022 6.428H140.914C140.914 5.804 140.686 5.276 140.23 4.844C139.774 4.388 139.234 4.16 138.61 4.16C138.61 4.16 138.538 4.16 138.394 4.16C138.25 4.16 138.166 4.16 138.142 4.16V3.8H141.022V6.428ZM146.206 26.372H146.314C146.338 26.996 146.566 27.536 146.998 27.992C147.454 28.424 147.994 28.64 148.618 28.64C148.618 28.64 148.69 28.64 148.834 28.64C149.002 28.64 149.086 28.64 149.086 28.64V29H146.206V26.372ZM146.206 6.428V3.8H149.086V4.16C149.086 4.16 149.002 4.16 148.834 4.16C148.69 4.16 148.618 4.16 148.618 4.16C147.994 4.16 147.454 4.388 146.998 4.844C146.566 5.276 146.338 5.804 146.314 6.428H146.206ZM169.401 3.8V27.92C169.401 29.24 169.137 30.428 168.609 31.484C168.081 32.564 167.361 33.476 166.449 34.22C165.561 34.964 164.541 35.504 163.389 35.84C162.237 36.2 161.037 36.32 159.789 36.2V35.876C160.797 35.444 161.613 34.796 162.237 33.932C162.861 33.092 163.305 32.132 163.569 31.052C163.857 29.996 164.001 28.916 164.001 27.812V3.8H169.401ZM164.109 6.428H164.001C163.977 5.804 163.737 5.276 163.281 4.844C162.849 4.388 162.321 4.16 161.697 4.16C161.697 4.16 161.613 4.16 161.445 4.16C161.301 4.16 161.229 4.16 161.229 4.16V3.8H164.109V6.428ZM169.293 6.428V3.8H172.173V4.16C172.173 4.16 172.089 4.16 171.921 4.16C171.777 4.16 171.705 4.16 171.705 4.16C171.081 4.16 170.541 4.388 170.085 4.844C169.653 5.276 169.425 5.804 169.401 6.428H169.293ZM182.723 3.8V29H177.323V3.8H182.723ZM192.227 27.452L193.091 29H182.615V27.452H192.227ZM190.895 15.824V17.336H182.615V15.824H190.895ZM192.659 3.8V5.348H182.615V3.8H192.659ZM194.855 21.62L193.199 29H186.143L187.439 27.452C188.639 27.452 189.695 27.224 190.607 26.768C191.519 26.288 192.299 25.616 192.947 24.752C193.595 23.864 194.111 22.82 194.495 21.62H194.855ZM190.895 17.264V20.72H190.535V20.432C190.535 19.544 190.247 18.812 189.671 18.236C189.095 17.66 188.363 17.36 187.475 17.336V17.264H190.895ZM190.895 12.44V15.896H187.475V15.824C188.363 15.8 189.095 15.5 189.671 14.924C190.247 14.324 190.535 13.58 190.535 12.692V12.44H190.895ZM192.659 5.24V9.452H192.299V9.02C192.299 7.916 191.963 7.028 191.291 6.356C190.643 5.684 189.755 5.336 188.627 5.312V5.24H192.659ZM192.659 3.152V4.196L188.267 3.8C188.795 3.8 189.347 3.764 189.923 3.692C190.523 3.62 191.075 3.536 191.579 3.44C192.083 3.344 192.443 3.248 192.659 3.152ZM177.431 26.372V29H174.551V28.64C174.551 28.64 174.623 28.64 174.767 28.64C174.935 28.64 175.019 28.64 175.019 28.64C175.643 28.64 176.171 28.424 176.603 27.992C177.059 27.536 177.299 26.996 177.323 26.372H177.431ZM177.431 6.428H177.323C177.299 5.804 177.059 5.276 176.603 4.844C176.171 4.388 175.643 4.16 175.019 4.16C175.019 4.16 174.935 4.16 174.767 4.16C174.623 4.16 174.551 4.16 174.551 4.16V3.8H177.431V6.428ZM197.117 4.016H202.985L208.745 20.288L206.585 29.648L197.117 4.016ZM215.117 3.224L215.765 6.788L207.773 25.652C207.773 25.652 207.701 25.856 207.557 26.264C207.413 26.672 207.269 27.176 207.125 27.776C207.005 28.376 206.933 29 206.909 29.648H206.585L205.577 25.364L214.793 3.224H215.117ZM215.117 3.26L223.037 20.756L221.309 29.648L212.633 10.46L215.117 3.26ZM229.049 4.016L222.281 25.652C222.281 25.652 222.221 25.868 222.101 26.3C221.981 26.708 221.873 27.224 221.777 27.848C221.681 28.448 221.645 29.048 221.669 29.648H221.309L220.301 26.084L226.601 4.016H229.049ZM225.917 6.392C226.109 5.672 226.049 5.12 225.737 4.736C225.425 4.352 225.029 4.16 224.549 4.16H224.225V3.8H231.749V4.16C231.749 4.16 231.701 4.16 231.605 4.16C231.509 4.16 231.461 4.16 231.461 4.16C230.909 4.16 230.309 4.34 229.661 4.7C229.013 5.036 228.557 5.6 228.293 6.392H225.917ZM203.885 6.392H198.017C197.705 5.6 197.237 5.036 196.613 4.7C195.989 4.34 195.401 4.16 194.849 4.16C194.849 4.16 194.801 4.16 194.705 4.16C194.609 4.16 194.561 4.16 194.561 4.16V3.8H205.541V4.16H205.217C204.761 4.16 204.353 4.352 203.993 4.736C203.657 5.12 203.621 5.672 203.885 6.392ZM240.414 3.8V29H235.014V3.8H240.414ZM249.918 27.452L250.782 29H240.306V27.452H249.918ZM248.586 15.824V17.336H240.306V15.824H248.586ZM250.35 3.8V5.348H240.306V3.8H250.35ZM252.546 21.62L250.89 29H243.834L245.13 27.452C246.33 27.452 247.386 27.224 248.298 26.768C249.21 26.288 249.99 25.616 250.638 24.752C251.286 23.864 251.802 22.82 252.186 21.62H252.546ZM248.586 17.264V20.72H248.226V20.432C248.226 19.544 247.938 18.812 247.362 18.236C246.786 17.66 246.054 17.36 245.166 17.336V17.264H248.586ZM248.586 12.44V15.896H245.166V15.824C246.054 15.8 246.786 15.5 247.362 14.924C247.938 14.324 248.226 13.58 248.226 12.692V12.44H248.586ZM250.35 5.24V9.452H249.99V9.02C249.99 7.916 249.654 7.028 248.982 6.356C248.334 5.684 247.446 5.336 246.318 5.312V5.24H250.35ZM250.35 3.152V4.196L245.958 3.8C246.486 3.8 247.038 3.764 247.614 3.692C248.214 3.62 248.766 3.536 249.27 3.44C249.774 3.344 250.134 3.248 250.35 3.152ZM235.122 26.372V29H232.242V28.64C232.242 28.64 232.314 28.64 232.458 28.64C232.626 28.64 232.71 28.64 232.71 28.64C233.334 28.64 233.862 28.424 234.294 27.992C234.75 27.536 234.99 26.996 235.014 26.372H235.122ZM235.122 6.428H235.014C234.99 5.804 234.75 5.276 234.294 4.844C233.862 4.388 233.334 4.16 232.71 4.16C232.71 4.16 232.626 4.16 232.458 4.16C232.314 4.16 232.242 4.16 232.242 4.16V3.8H235.122V6.428ZM263.02 3.8V29H257.62V3.8H263.02ZM272.524 27.452L273.388 29H262.912V27.452H272.524ZM275.152 21.62L273.496 29H266.44L267.736 27.452C268.936 27.452 269.992 27.224 270.904 26.768C271.816 26.288 272.596 25.616 273.244 24.752C273.892 23.864 274.408 22.82 274.792 21.62H275.152ZM257.728 26.372V29H254.848V28.64C254.848 28.64 254.92 28.64 255.064 28.64C255.232 28.64 255.316 28.64 255.316 28.64C255.94 28.64 256.468 28.424 256.9 27.992C257.356 27.536 257.596 26.996 257.62 26.372H257.728ZM257.728 6.428H257.62C257.596 5.804 257.356 5.276 256.9 4.844C256.468 4.388 255.94 4.16 255.316 4.16C255.316 4.16 255.232 4.16 255.064 4.16C254.92 4.16 254.848 4.16 254.848 4.16V3.8H257.728V6.428ZM262.912 6.428V3.8H265.792V4.16C265.768 4.16 265.684 4.16 265.54 4.16C265.396 4.16 265.324 4.16 265.324 4.16C264.7 4.16 264.16 4.388 263.704 4.844C263.272 5.276 263.044 5.804 263.02 6.428H262.912ZM285.527 3.296C286.007 3.296 286.595 3.32 287.291 3.368C288.011 3.416 288.743 3.488 289.487 3.584C290.255 3.656 290.915 3.74 291.467 3.836C292.043 3.908 292.439 3.992 292.655 4.088L292.223 8.948H291.863C291.863 7.7 291.395 6.704 290.459 5.96C289.547 5.192 288.323 4.808 286.787 4.808C285.395 4.808 284.267 5.144 283.403 5.816C282.563 6.488 282.119 7.304 282.071 8.264C282.047 8.984 282.275 9.608 282.755 10.136C283.235 10.664 283.847 11.156 284.591 11.612L291.467 16.076C292.571 16.7 293.399 17.516 293.951 18.524C294.527 19.532 294.779 20.708 294.707 22.052C294.587 24.404 293.687 26.24 292.007 27.56C290.327 28.856 288.047 29.504 285.167 29.504C284.111 29.504 283.079 29.408 282.071 29.216C281.087 29.048 280.211 28.808 279.443 28.496C278.675 28.16 278.063 27.764 277.607 27.308C277.415 26.78 277.331 26.144 277.355 25.4C277.379 24.656 277.487 23.9 277.679 23.132C277.895 22.364 278.159 21.728 278.471 21.224H278.795C278.699 22.448 278.915 23.588 279.443 24.644C279.995 25.676 280.787 26.504 281.819 27.128C282.875 27.728 284.123 28.016 285.563 27.992C287.147 27.968 288.371 27.572 289.235 26.804C290.099 26.012 290.531 25.064 290.531 23.96C290.531 23.216 290.303 22.544 289.847 21.944C289.415 21.344 288.695 20.768 287.687 20.216L281.387 16.04C280.115 15.32 279.191 14.396 278.615 13.268C278.039 12.14 277.811 10.916 277.931 9.596C278.051 8.348 278.423 7.256 279.047 6.32C279.671 5.36 280.523 4.616 281.603 4.088C282.707 3.56 284.015 3.296 285.527 3.296ZM292.691 3.656L292.619 4.412H288.371V3.656H292.691Z" fill="white"/>
</svg>
